<?xml version="1.0" encoding="UTF-8"?>
<svg width="164px" height="73px" viewBox="0 0 164 73" version="1.1" xmlns="http://www.w3.org/2000/svg" xmlns:xlink="http://www.w3.org/1999/xlink">
    <!-- Generator: Sketch 51.2 (57519) - http://www.bohemiancoding.com/sketch -->
    <title>Group 2</title>
    <desc>Created with Sketch.</desc>
    <defs></defs>
    <g id="Page-1" stroke="none" stroke-width="1" fill="none" fill-rule="evenodd">
        <g id="Logo" transform="translate(-1.000000, -4.000000)">
            <g id="Group-2" transform="translate(0.000000, -1.000000)">
                <text id="HOUSE" font-family="ChakraPetch-SemiBold, Chakra Petch SemiBold" font-size="35" font-weight="500" fill="#000000">
                    <tspan x="0" y="35">HOUSE</tspan>
                </text>
                <text id="of" font-family="Roboto-LightItalic, Roboto" font-size="35" font-style="italic" font-weight="300" fill="#000000">
                    <tspan x="0" y="77">of</tspan>
                </text>
                <text id="MOVIES" font-family="ChakraPetch-SemiBold, Chakra Petch SemiBold" font-size="35" font-weight="500" fill="#000000">
                    <tspan x="40" y="77">MOVIES</tspan>
                </text>
                <g id="popcorn" transform="translate(127.000000, 5.000000)" fill-rule="nonzero">
                    <path d="M34,17 C34,26.3889618 26.3889618,34 17,34 C7.61103819,34 0,26.3889618 0,17 C0,7.61103819 7.61103819,0 17,0 C26.3889618,0 34,7.61103819 34,17 Z" id="Shape" fill="#303A59"></path>
                    <g id="Group" transform="translate(4.857143, 0.000000)" fill="#FFCF11">
                        <path d="M20.3910463,6.54189024 C20.3910463,8.76147864 18.6148977,10.5604726 16.424067,10.5604726 C14.2329805,10.5604726 12.4570877,8.76147864 12.4570877,6.54189024 C12.4570877,4.32256098 14.2329805,2.52330791 16.424067,2.52330791 C18.6148977,2.52330791 20.3910463,4.32256098 20.3910463,6.54189024 Z" id="Shape"></path>
                        <path d="M23.2633778,9.56068596 C23.2633778,11.7802744 21.4872291,13.5792683 19.2963985,13.5792683 C17.105312,13.5792683 15.3291633,11.7802744 15.3291633,9.56068596 C15.3291633,7.34135669 17.105312,5.54210363 19.2963985,5.54210363 C21.4872291,5.54210363 23.2633778,7.34135669 23.2633778,9.56068596 Z" id="Shape"></path>
                        <path d="M7.98512242,9.56068596 C7.98512242,11.7802744 6.20897373,13.5792683 4.01788721,13.5792683 C1.82705661,13.5792683 0.0509079217,11.7802744 0.0509079217,9.56068596 C0.0509079217,7.34135669 1.82705661,5.54210363 4.01788721,5.54210363 C6.20897373,5.54210363 7.98512242,7.34135669 7.98512242,9.56068596 Z" id="Shape"></path>
                        <path d="M10.857198,6.54189024 C10.857198,8.76147864 9.08130519,10.5604726 6.89021873,10.5604726 C4.69938801,10.5604726 2.92323938,8.76147864 2.92323938,6.54189024 C2.92323938,4.32256098 4.69938801,2.52330791 6.89021873,2.52330791 C9.08130519,2.52330791 10.857198,4.32256098 10.857198,6.54189024 Z" id="Shape"></path>
                        <path d="M15.6241222,4.01858233 C15.6241222,6.23817073 13.8479735,8.03716467 11.6571429,8.03716467 C9.4663122,8.03716467 7.69016351,6.23817073 7.69016351,4.01858233 C7.69016351,1.79925307 9.4663122,0 11.6571429,0 C13.8479735,0 15.6241222,1.79925307 15.6241222,4.01858233 Z" id="Shape"></path>
                    </g>
                    <path d="M10.6857143,10.6857143 C10.6857143,12.2951954 9.38109425,13.6 7.77154749,13.6 C6.16200073,13.6 4.85714286,12.2951954 4.85714286,10.6857143 C4.85714286,9.0762332 6.16200073,7.77142857 7.77154749,7.77142857 C9.38109425,7.77142857 10.6857143,9.0762332 10.6857143,10.6857143 Z" id="Shape" fill="#FFE854"></path>
                    <path d="M14.5714286,10.685589 C14.5714286,12.831721 12.831721,14.5714286 10.6858396,14.5714286 C8.53970753,14.5714286 6.8,12.831721 6.8,10.685589 C6.8,8.53970753 8.53970753,6.8 10.6858396,6.8 C12.831721,6.8 14.5714286,8.53970753 14.5714286,10.685589 Z" id="Shape" fill="#FFE854"></path>
                    <path d="M23.3142857,9.22857146 C23.3142857,12.1792017 20.9222609,14.5714286 17.9715588,14.5714286 C15.0205962,14.5714286 12.6285714,12.1792017 12.6285714,9.22857146 C12.6285714,6.27794125 15.0205962,3.88571429 17.9715588,3.88571429 C20.9222609,3.88571429 23.3142857,6.27794125 23.3142857,9.22857146 Z" id="Shape" fill="#FFE854"></path>
                    <path d="M27.2,10.685589 C27.2,12.831721 25.4602364,14.5714286 23.3142857,14.5714286 C21.1680844,14.5714286 19.4285714,12.831721 19.4285714,10.685589 C19.4285714,8.53970753 21.1680844,6.8 23.3142857,6.8 C25.4602364,6.8 27.2,8.53970753 27.2,10.685589 Z" id="Shape" fill="#FFE854"></path>
                    <path d="M30.1142857,10.6857143 C30.1142857,12.2951954 28.809481,13.6 27.2,13.6 C25.590519,13.6 24.2857143,12.2951954 24.2857143,10.6857143 C24.2857143,9.0762332 25.590519,7.77142857 27.2,7.77142857 C28.809481,7.77142857 30.1142857,9.0762332 30.1142857,10.6857143 Z" id="Shape" fill="#FFE854"></path>
                    <path d="M12.6285714,12.1429902 C12.6285714,13.4841118 11.5412546,14.5714286 10.200133,14.5714286 C8.85874538,14.5714286 7.77142857,13.4841118 7.77142857,12.1429902 C7.77142857,10.8016025 8.85874538,9.71428571 10.200133,9.71428571 C11.5412546,9.71428571 12.6285714,10.8016025 12.6285714,12.1429902 Z" id="Shape" fill="#FFCF11"></path>
                    <path d="M23.3142857,11.1712956 C23.3142857,12.5126832 22.2269689,13.6 20.8858473,13.6 C19.5444596,13.6 18.4571429,12.5126832 18.4571429,11.1712956 C18.4571429,9.83017397 19.5444596,8.74285714 20.8858473,8.74285714 C22.2269689,8.74285714 23.3142857,9.83017397 23.3142857,11.1712956 Z" id="Shape" fill="#FFCF11"></path>
                    <path d="M28.1714286,12.1427241 C28.1714286,13.4841118 27.0841118,14.5714286 25.7427241,14.5714286 C24.4016025,14.5714286 23.3142857,13.4841118 23.3142857,12.1427241 C23.3142857,10.8016025 24.4016025,9.71428571 25.7427241,9.71428571 C27.0841118,9.71428571 28.1714286,10.8016025 28.1714286,12.1427241 Z" id="Shape" fill="#FFCF11"></path>
                    <path d="M16.5142857,10.6858417 C16.5142857,12.2952252 15.2097086,13.6 13.6,13.6 C11.9905461,13.6 10.6857143,12.2952252 10.6857143,10.6858417 C10.6857143,9.0762034 11.9905461,7.77142857 13.6,7.77142857 C15.2097086,7.77142857 16.5142857,9.0762034 16.5142857,10.6858417 Z" id="Shape" fill="#FFCF11"></path>
                    <path d="M26.2285714,10.6858417 C26.2285714,12.2952252 24.9237396,13.6 23.3142857,13.6 C21.7045771,13.6 20.4,12.2952252 20.4,10.6858417 C20.4,9.0762034 21.7045771,7.77142857 23.3142857,7.77142857 C24.9237396,7.77142857 26.2285714,9.0762034 26.2285714,10.6858417 Z" id="Shape" fill="#FFCF11"></path>
                    <path d="M6.16325442,30.0724734 C9.10116485,32.5245511 12.8786999,34 17,34 C21.1213001,34 24.8988351,32.5245511 27.8367456,30.0724734 L30.1142857,13.6 L3.88571429,13.6 L6.16325442,30.0724734 Z" id="Shape" fill="#FF3345"></path>
                    <polygon id="Shape" fill="#E32828" points="4.25301775 16.5142857 29.7469822 16.5142857 30.1142857 13.6 3.88571429 13.6"></polygon>
                    <path d="M19.4285714,34 C20.6170238,33.8071201 21.7619302,33.4642805 22.8463429,32.9879691 L24.2857143,13.6 L20.0377444,13.6 L19.4285714,34 Z" id="Shape" fill="#EBF0F3"></path>
                    <path d="M13.9622556,13.6 L9.71428571,13.6 L11.1538925,32.9879691 C12.2380698,33.4642805 13.3829762,33.8071201 14.5714286,34 L13.9622556,13.6 Z" id="Shape" fill="#EBF0F3"></path>
                    <polygon id="Shape" fill="#C7D9FF" points="20.4 16.5142857 25.033662 16.5142857 25.2571429 13.6 20.4898149 13.6"></polygon>
                    <polygon id="Shape" fill="#C7D9FF" points="14.4816136 13.6 9.71428571 13.6 9.93776656 16.5142857 14.5714286 16.5142857"></polygon>
                    <path d="M31.3924395,14.5714286 L3.57898908,14.5714286 C3.21176428,14.5714286 2.91428571,14.3150625 2.91428571,13.9988169 L2.91428571,12.2297545 C2.91428571,11.9135089 3.21176428,11.6571429 3.57898908,11.6571429 L31.3924395,11.6571429 C31.7596643,11.6571429 32.0571429,11.9135089 32.0571429,12.2297545 L32.0571429,13.9988169 C32.0571429,14.3150625 31.7596643,14.5714286 31.3924395,14.5714286 Z" id="Shape" fill="#FF3345"></path>
                </g>
            </g>
        </g>
    </g>
</svg>